<svg width="70" height="70" viewBox="0 0 70 70" fill="none" xmlns="http://www.w3.org/2000/svg">
<path d="M21.875 26.25C21.875 25.8632 21.7214 25.4923 21.4479 25.2188C21.1744 24.9453 20.8034 24.7917 20.4167 24.7917H5.83333C5.44656 24.7917 5.07563 24.9453 4.80214 25.2188C4.52865 25.4923 4.375 25.8632 4.375 26.25V67.0834C4.375 67.4701 4.52865 67.8411 4.80214 68.1146C5.07563 68.388 5.44656 68.5417 5.83333 68.5417H21.875V26.25Z" stroke="white" stroke-width="2.91667" stroke-linecap="round" stroke-linejoin="round"/>
<path d="M1.45801 48.125H24.7913" stroke="white" stroke-width="2.91667" stroke-linecap="round" stroke-linejoin="round"/>
<path d="M10.208 53.9583V56.875" stroke="white" stroke-width="2.91667" stroke-linecap="round" stroke-linejoin="round"/>
<path d="M16.042 53.9583V56.875" stroke="white" stroke-width="2.91667" stroke-linecap="round" stroke-linejoin="round"/>
<path d="M10.208 48.125V42.2917C10.208 41.5181 10.5153 40.7763 11.0623 40.2293C11.6093 39.6823 12.3511 39.375 13.1247 39.375C13.8982 39.375 14.6401 39.6823 15.1871 40.2293C15.734 40.7763 16.0413 41.5181 16.0413 42.2917V48.125" stroke="white" stroke-width="2.91667" stroke-linecap="round" stroke-linejoin="round"/>
<path d="M4.375 33.5417H21.875" stroke="white" stroke-width="2.91667" stroke-linecap="round" stroke-linejoin="round"/>
<path d="M5.83301 24.7916L13.1247 14.5833L20.4163 24.7916" stroke="white" stroke-width="2.91667" stroke-linecap="round" stroke-linejoin="round"/>
<path d="M13.125 14.5833V1.45831" stroke="white" stroke-width="2.91667" stroke-linecap="round" stroke-linejoin="round"/>
<path d="M8.75 7.29169H17.5" stroke="white" stroke-width="2.91667" stroke-linecap="round" stroke-linejoin="round"/>
<path d="M65.625 26.25C65.625 25.8632 65.4714 25.4923 65.1979 25.2188C64.9244 24.9453 64.5534 24.7917 64.1667 24.7917H49.5833C49.1966 24.7917 48.8256 24.9453 48.5521 25.2188C48.2786 25.4923 48.125 25.8632 48.125 26.25V68.5417H64.1667C64.5534 68.5417 64.9244 68.388 65.1979 68.1146C65.4714 67.8411 65.625 67.4701 65.625 67.0834V26.25Z" stroke="white" stroke-width="2.91667" stroke-linecap="round" stroke-linejoin="round"/>
<path d="M45.208 48.125H68.5413" stroke="white" stroke-width="2.91667" stroke-linecap="round" stroke-linejoin="round"/>
<path d="M53.958 53.9583V56.875" stroke="white" stroke-width="2.91667" stroke-linecap="round" stroke-linejoin="round"/>
<path d="M59.792 53.9583V56.875" stroke="white" stroke-width="2.91667" stroke-linecap="round" stroke-linejoin="round"/>
<path d="M53.958 48.125V42.2917C53.958 41.5181 54.2653 40.7763 54.8123 40.2293C55.3593 39.6823 56.1011 39.375 56.8747 39.375C57.6482 39.375 58.3901 39.6823 58.9371 40.2293C59.4841 40.7763 59.7913 41.5181 59.7913 42.2917V48.125" stroke="white" stroke-width="2.91667" stroke-linecap="round" stroke-linejoin="round"/>
<path d="M48.125 33.5417H65.625" stroke="white" stroke-width="2.91667" stroke-linecap="round" stroke-linejoin="round"/>
<path d="M49.583 24.7916L56.8747 14.5833L64.1663 24.7916" stroke="white" stroke-width="2.91667" stroke-linecap="round" stroke-linejoin="round"/>
<path d="M56.875 14.5833V1.45831" stroke="white" stroke-width="2.91667" stroke-linecap="round" stroke-linejoin="round"/>
<path d="M52.5 7.29169H61.25" stroke="white" stroke-width="2.91667" stroke-linecap="round" stroke-linejoin="round"/>
<path d="M21.875 68.5417H48.125" stroke="white" stroke-width="2.91667" stroke-linecap="round" stroke-linejoin="round"/>
<path d="M21.875 36.4583L33.8012 19.2324C33.9355 19.0387 34.1146 18.8804 34.3234 18.7711C34.5322 18.6617 34.7643 18.6046 35 18.6046C35.2357 18.6046 35.4678 18.6617 35.6766 18.7711C35.8854 18.8804 36.0645 19.0387 36.1988 19.2324L48.125 36.4583" stroke="white" stroke-width="2.91667" stroke-linecap="round" stroke-linejoin="round"/>
<path d="M35.0003 45.2084C38.222 45.2084 40.8337 42.5967 40.8337 39.375C40.8337 36.1534 38.222 33.5417 35.0003 33.5417C31.7787 33.5417 29.167 36.1534 29.167 39.375C29.167 42.5967 31.7787 45.2084 35.0003 45.2084Z" stroke="white" stroke-width="2.91667" stroke-linecap="round" stroke-linejoin="round"/>
<path d="M30.625 68.5416V58.3333C30.625 57.173 31.0859 56.0602 31.9064 55.2397C32.7269 54.4193 33.8397 53.9583 35 53.9583C36.1603 53.9583 37.2731 54.4193 38.0936 55.2397C38.9141 56.0602 39.375 57.173 39.375 58.3333V68.5416" stroke="white" stroke-width="2.91667" stroke-linecap="round" stroke-linejoin="round"/>
</svg>
