<svg width="188" height="47" viewBox="0 0 188 47" fill="none" xmlns="http://www.w3.org/2000/svg">
<path d="M6.03257 0L0 9.56383L9.26956 25.4545L26.043 0H6.03257Z" fill="#FF6C44"/>
<path d="M29.28 46.7892H7.50391L24.2774 22.3646L35.1654 37.961L29.28 46.7892Z" fill="#FF6C44"/>
<path d="M17.9507 12.8008L35.3127 37.8139L43.6995 25.7488L26.3374 0L17.9507 12.8008Z" fill="#FF6C44"/>
<path d="M51.0562 3.08984H58.3997C61.468 3.08984 63.7466 4.10508 65.2356 6.13555C66.7472 8.16603 67.503 11.0877 67.503 14.9004C67.503 18.7358 66.7472 21.6687 65.2356 23.6992C63.7466 25.7071 61.468 26.711 58.3997 26.711H51.0562V3.08984ZM58.0951 23.1577C59.7195 23.1577 60.9152 22.6275 61.6823 21.5672C62.4719 20.5068 62.8667 18.9614 62.8667 16.9309V12.8361C62.8667 10.8282 62.4719 9.29407 61.6823 8.23371C60.9152 7.17335 59.7195 6.64317 58.0951 6.64317H55.4217V23.1577H58.0951Z" fill="black"/>
<path d="M71.6861 26.711V3.08984H86.6101V6.7447H76.1193V12.9038H86.2378V16.5587H76.1193V23.0562H86.6101V26.711H71.6861Z" fill="black"/>
<path d="M91.8761 26.711V3.08984H100.844C103.145 3.08984 104.905 3.74411 106.123 5.05263C107.342 6.36116 107.951 8.14347 107.951 10.3996C107.951 12.6556 107.342 14.4379 106.123 15.7465C104.905 17.055 103.145 17.7093 100.844 17.7093H96.3093V26.711H91.8761ZM96.3093 14.0882H99.9303C101.126 14.0882 101.983 13.8514 102.502 13.3776C103.021 12.8812 103.281 12.1029 103.281 11.0425V9.75657C103.281 8.69621 103.021 7.92914 102.502 7.45536C101.983 6.95902 101.126 6.71086 99.9303 6.71086H96.3093V14.0882Z" fill="black"/>
<path d="M124.655 26.711L122.997 20.7211H115.992L114.367 26.711H109.9L116.533 3.08984H122.692L129.359 26.711H124.655ZM119.647 7.45536H119.376L116.77 17.1001H122.252L119.647 7.45536Z" fill="black"/>
<path d="M136.283 3.08984V17.3694C136.283 18.2492 136.306 19.0389 136.351 19.7383C136.419 20.4376 136.565 21.0355 136.791 21.5318C137.039 22.0056 137.4 22.3779 137.874 22.6486C138.37 22.9193 139.047 23.0547 139.904 23.0547C140.762 23.0547 141.427 22.9193 141.901 22.6486C142.397 22.3779 142.758 22.0056 142.984 21.5318C143.232 21.0355 143.379 20.4376 143.424 19.7383C143.491 19.0389 143.525 18.2492 143.525 17.3694V3.08984H147.958V16.6925C147.958 18.3621 147.857 19.8172 147.654 21.0581C147.451 22.2989 147.056 23.3367 146.469 24.1715C145.883 25.0062 145.059 25.6379 143.999 26.0666C142.961 26.4727 141.596 26.6757 139.904 26.6757C138.212 26.6757 136.836 26.4727 135.776 26.0666C134.738 25.6379 133.926 25.0062 133.339 24.1715C132.752 23.3367 132.358 22.2989 132.155 21.0581C131.952 19.8172 131.85 18.3621 131.85 16.6925V3.08984H136.283Z" fill="black"/>
<path d="M153.427 26.711V3.08984H157.861V23.0562H168.318V26.711H153.427Z" fill="black"/>
<path d="M172.975 26.711V23.3946H178.288V6.40628H172.975V3.08984H188V6.40628H182.687V23.3946H188V26.711H172.975Z" fill="black"/>
<path d="M164.691 38.6461L164.786 35.4362H164.643L162.498 41.141L160.353 35.4362H160.21L160.305 38.6461V43.6317H158.494V32.5965H160.973L162.514 36.771H162.625L164.183 32.5965H166.503V43.6317H164.691V38.6461Z" fill="#1D252D" fill-opacity="0.5"/>
<path d="M138.192 43.6317V32.5965H145.2V34.4033H140.274V37.2954H145.025V39.0116H140.274V42.0626H145.2V43.6317H138.192Z" fill="#1D252D" fill-opacity="0.5"/>
<path d="M121.521 34.4033V43.6317H119.456V34.4033H116.119V32.5965H124.859V34.4033H121.521Z" fill="#1D252D" fill-opacity="0.5"/>
<path d="M75.9749 43.6317V39.7267L72.3677 32.5965H74.6877L75.9749 35.3568L76.976 37.6291H77.0872L78.1042 35.3568L79.4072 32.5965H81.6478L78.0406 39.7267V43.6317H75.9749Z" fill="#1D252D" fill-opacity="0.5"/>
<path d="M55.0058 43.6317C54.0837 43.6317 53.2948 43.4737 52.6391 43.1579C51.9936 42.842 51.466 42.4242 51.0562 41.9046L52.2702 40.6513C52.6698 41.1098 53.1001 41.4511 53.5612 41.6753C54.0325 41.8893 54.5345 41.9963 55.0672 41.9963C55.682 41.9963 56.1533 41.8587 56.4811 41.5836C56.809 41.3085 56.9729 40.9111 56.9729 40.3914C56.9729 39.9635 56.8499 39.6425 56.6041 39.4285C56.3582 39.2044 55.9432 39.0464 55.3592 38.9547L54.222 38.7713C53.2282 38.5981 52.5212 38.2415 52.1012 37.7014C51.6811 37.1512 51.4711 36.5042 51.4711 35.7603C51.4711 34.7414 51.8041 33.9619 52.47 33.4218C53.136 32.8716 54.0581 32.5965 55.2363 32.5965C56.0764 32.5965 56.7987 32.729 57.4032 32.9939C58.0179 33.2588 58.5097 33.6205 58.8785 34.0791L57.6952 35.3324C57.4083 34.9961 57.0651 34.7312 56.6655 34.5376C56.266 34.3338 55.7947 34.2319 55.2517 34.2319C54.0837 34.2319 53.4997 34.7108 53.4997 35.6686C53.4997 36.0762 53.6226 36.387 53.8685 36.601C54.1144 36.8149 54.5345 36.9729 55.1287 37.0748L56.2506 37.2735C57.1829 37.4467 57.8745 37.788 58.3253 38.2975C58.7761 38.807 59.0015 39.4591 59.0015 40.2539C59.0015 40.7532 58.9144 41.2117 58.7402 41.6295C58.5661 42.037 58.3099 42.3937 57.9718 42.6993C57.6337 42.9948 57.2137 43.2241 56.7116 43.3871C56.2199 43.5502 55.6512 43.6317 55.0058 43.6317Z" fill="#1D252D" fill-opacity="0.5"/>
<path d="M98.8522 43.6317C97.9301 43.6317 97.1412 43.4737 96.4855 43.1579C95.84 42.842 95.3124 42.4242 94.9026 41.9046L96.1167 40.6513C96.5162 41.1098 96.9466 41.4511 97.4076 41.6753C97.8789 41.8893 98.3809 41.9963 98.9137 41.9963C99.5284 41.9963 99.9997 41.8587 100.328 41.5836C100.655 41.3085 100.819 40.9111 100.819 40.3914C100.819 39.9635 100.696 39.6425 100.45 39.4285C100.205 39.2044 99.7897 39.0464 99.2057 38.9547L98.0684 38.7713C97.0746 38.5981 96.3677 38.2415 95.9476 37.7014C95.5276 37.1512 95.3175 36.5042 95.3175 35.7603C95.3175 34.7414 95.6505 33.9619 96.3165 33.4218C96.9824 32.8716 97.9045 32.5965 99.0827 32.5965C99.9229 32.5965 100.645 32.729 101.25 32.9939C101.864 33.2588 102.356 33.6205 102.725 34.0791L101.542 35.3324C101.255 34.9961 100.912 34.7312 100.512 34.5376C100.112 34.3338 99.6411 34.2319 99.0981 34.2319C97.9301 34.2319 97.3461 34.7108 97.3461 35.6686C97.3461 36.0762 97.4691 36.387 97.715 36.601C97.9608 36.8149 98.3809 36.9729 98.9751 37.0748L100.097 37.2735C101.029 37.4467 101.721 37.788 102.172 38.2975C102.623 38.807 102.848 39.4591 102.848 40.2539C102.848 40.7532 102.761 41.2117 102.587 41.6295C102.412 42.037 102.156 42.3937 101.818 42.6993C101.48 42.9948 101.06 43.2241 100.558 43.3871C100.066 43.5502 99.4977 43.6317 98.8522 43.6317Z" fill="#1D252D" fill-opacity="0.5"/>
<path d="M183.75 43.6317C182.828 43.6317 182.039 43.4737 181.383 43.1579C180.738 42.842 180.21 42.4242 179.8 41.9046L181.014 40.6513C181.414 41.1098 181.844 41.4511 182.305 41.6753C182.776 41.8893 183.278 41.9963 183.811 41.9963C184.426 41.9963 184.897 41.8587 185.225 41.5836C185.553 41.3085 185.717 40.9111 185.717 40.3914C185.717 39.9635 185.594 39.6425 185.348 39.4285C185.102 39.2044 184.687 39.0464 184.103 38.9547L182.966 38.7713C181.972 38.5981 181.265 38.2415 180.845 37.7014C180.425 37.1512 180.215 36.5042 180.215 35.7603C180.215 34.7414 180.548 33.9619 181.214 33.4218C181.88 32.8716 182.802 32.5965 183.98 32.5965C184.82 32.5965 185.543 32.729 186.147 32.9939C186.762 33.2588 187.254 33.6205 187.622 34.0791L186.439 35.3324C186.152 34.9961 185.809 34.7312 185.409 34.5376C185.01 34.3338 184.539 34.2319 183.996 34.2319C182.828 34.2319 182.244 34.7108 182.244 35.6686C182.244 36.0762 182.367 36.387 182.612 36.601C182.858 36.8149 183.278 36.9729 183.873 37.0748L184.994 37.2735C185.927 37.4467 186.618 37.788 187.069 38.2975C187.52 38.807 187.745 39.4591 187.745 40.2539C187.745 40.7532 187.658 41.2117 187.484 41.6295C187.31 42.037 187.054 42.3937 186.716 42.6993C186.378 42.9948 185.958 43.2241 185.456 43.3871C184.964 43.5502 184.395 43.6317 183.75 43.6317Z" fill="#1D252D" fill-opacity="0.5"/>
</svg>
