<svg width="50" height="50" viewBox="0 0 50 50" fill="none" xmlns="http://www.w3.org/2000/svg">
<path d="M32.8125 10.9375L28.125 26.5625H15.625L12.5 17.1875H30.9375" stroke="#FF6C44" stroke-width="3.125" stroke-linecap="round" stroke-linejoin="round"/>
<path d="M16.4062 31.25C16.5608 31.25 16.7118 31.2958 16.8403 31.3817C16.9688 31.4675 17.0689 31.5895 17.128 31.7323C17.1872 31.875 17.2026 32.0321 17.1725 32.1837C17.1423 32.3352 17.0679 32.4744 16.9587 32.5837C16.8494 32.6929 16.7102 32.7673 16.5587 32.7975C16.4071 32.8276 16.25 32.8122 16.1073 32.753C15.9645 32.6939 15.8425 32.5938 15.7567 32.4653C15.6708 32.3368 15.625 32.1858 15.625 32.0312C15.625 31.824 15.7073 31.6253 15.8538 31.4788C16.0003 31.3323 16.199 31.25 16.4062 31.25Z" stroke="#FF6C44" stroke-width="3.125" stroke-linecap="round" stroke-linejoin="round"/>
<path d="M27.3437 31.25C27.4983 31.25 27.6493 31.2958 27.7778 31.3817C27.9063 31.4675 28.0064 31.5895 28.0655 31.7323C28.1247 31.875 28.1401 32.0321 28.11 32.1837C28.0798 32.3352 28.0054 32.4744 27.8962 32.5837C27.7869 32.6929 27.6477 32.7673 27.4962 32.7975C27.3446 32.8276 27.1875 32.8122 27.0448 32.753C26.902 32.6939 26.78 32.5938 26.6942 32.4653C26.6083 32.3368 26.5625 32.1858 26.5625 32.0312C26.5625 31.824 26.6448 31.6253 26.7913 31.4788C26.9378 31.3323 27.1365 31.25 27.3437 31.25" stroke="#FF6C44" stroke-width="3.125" stroke-linecap="round" stroke-linejoin="round"/>
<path d="M28.8647 40.9521C24.5547 42.5281 19.8378 42.5967 15.4839 41.1465C11.13 39.6964 7.39615 36.8133 4.89191 32.9678C2.38766 29.1222 1.26088 24.5414 1.69548 19.9729C2.13007 15.4045 4.10039 11.1183 7.28482 7.81388C10.4692 4.5095 14.6797 2.38212 19.229 1.77897C23.7782 1.17581 28.3976 2.13252 32.3331 4.49293C36.2685 6.85333 39.2877 10.478 40.8977 14.7754C42.5078 19.0727 42.6136 23.7889 41.198 28.1542" stroke="#FF6C44" stroke-width="3.125" stroke-linecap="round" stroke-linejoin="round"/>
<path d="M34.075 34.0729L39.5979 48.4375L42.9124 42.9125L48.4374 39.5979L34.075 34.0729Z" stroke="#FCFCF7" stroke-width="3.125" stroke-linecap="round" stroke-linejoin="round"/>
<path d="M48.4376 48.4376L42.9126 42.9126" stroke="#FCFCF7" stroke-width="3.125" stroke-linecap="round" stroke-linejoin="round"/>
</svg>
