<svg width="188" height="47" viewBox="0 0 188 47" fill="none" xmlns="http://www.w3.org/2000/svg">
<path d="M6.03257 0L0 9.56383L9.26956 25.4545L26.043 0H6.03257Z" fill="white" fill-opacity="0.2"/>
<path d="M29.28 46.7893H7.50391L24.2774 22.3647L35.1654 37.9611L29.28 46.7893Z" fill="white" fill-opacity="0.2"/>
<path d="M17.9507 12.8008L35.3127 37.8139L43.6995 25.7488L26.3374 0L17.9507 12.8008Z" fill="white" fill-opacity="0.2"/>
<path d="M51.0562 3.08984H58.3997C61.468 3.08984 63.7466 4.10508 65.2356 6.13555C66.7472 8.16603 67.503 11.0877 67.503 14.9004C67.503 18.7358 66.7472 21.6687 65.2356 23.6992C63.7466 25.7071 61.468 26.711 58.3997 26.711H51.0562V3.08984ZM58.0951 23.1577C59.7195 23.1577 60.9152 22.6275 61.6823 21.5672C62.4719 20.5068 62.8667 18.9614 62.8667 16.9309V12.8361C62.8667 10.8282 62.4719 9.29407 61.6823 8.23371C60.9152 7.17335 59.7195 6.64317 58.0951 6.64317H55.4217V23.1577H58.0951Z" fill="white" fill-opacity="0.2"/>
<path d="M71.6861 26.711V3.08984H86.6101V6.7447H76.1193V12.9038H86.2378V16.5587H76.1193V23.0562H86.6101V26.711H71.6861Z" fill="white" fill-opacity="0.2"/>
<path d="M91.8761 26.711V3.08984H100.844C103.145 3.08984 104.905 3.74411 106.123 5.05263C107.342 6.36116 107.951 8.14347 107.951 10.3996C107.951 12.6556 107.342 14.4379 106.123 15.7465C104.905 17.055 103.145 17.7093 100.844 17.7093H96.3093V26.711H91.8761ZM96.3093 14.0882H99.9303C101.126 14.0882 101.983 13.8514 102.502 13.3776C103.021 12.8812 103.281 12.1029 103.281 11.0425V9.75657C103.281 8.69621 103.021 7.92914 102.502 7.45536C101.983 6.95902 101.126 6.71086 99.9303 6.71086H96.3093V14.0882Z" fill="white" fill-opacity="0.2"/>
<path d="M124.655 26.711L122.997 20.7211H115.992L114.367 26.711H109.9L116.533 3.08984H122.692L129.359 26.711H124.655ZM119.647 7.45536H119.376L116.77 17.1001H122.252L119.647 7.45536Z" fill="white" fill-opacity="0.2"/>
<path d="M136.283 3.08984V17.3694C136.283 18.2492 136.306 19.0389 136.351 19.7383C136.419 20.4376 136.565 21.0355 136.791 21.5318C137.039 22.0056 137.4 22.3779 137.874 22.6486C138.37 22.9193 139.047 23.0547 139.904 23.0547C140.762 23.0547 141.427 22.9193 141.901 22.6486C142.397 22.3779 142.758 22.0056 142.984 21.5318C143.232 21.0355 143.379 20.4376 143.424 19.7383C143.491 19.0389 143.525 18.2492 143.525 17.3694V3.08984H147.958V16.6925C147.958 18.3621 147.857 19.8172 147.654 21.0581C147.451 22.2989 147.056 23.3367 146.469 24.1715C145.883 25.0062 145.059 25.6379 143.999 26.0666C142.961 26.4727 141.596 26.6757 139.904 26.6757C138.212 26.6757 136.836 26.4727 135.776 26.0666C134.738 25.6379 133.926 25.0062 133.339 24.1715C132.752 23.3367 132.358 22.2989 132.155 21.0581C131.952 19.8172 131.85 18.3621 131.85 16.6925V3.08984H136.283Z" fill="white" fill-opacity="0.2"/>
<path d="M153.427 26.711V3.08984H157.861V23.0562H168.318V26.711H153.427Z" fill="white" fill-opacity="0.2"/>
<path d="M172.975 26.711V23.3946H178.288V6.40628H172.975V3.08984H188V6.40628H182.687V23.3946H188V26.711H172.975Z" fill="white" fill-opacity="0.2"/>
<path d="M164.691 38.6463L164.786 35.4364H164.643L162.498 41.1412L160.353 35.4364H160.21L160.305 38.6463V43.6319H158.494V32.5967H160.973L162.514 36.7712H162.625L164.183 32.5967H166.503V43.6319H164.691V38.6463Z" fill="white" fill-opacity="0.1"/>
<path d="M138.192 43.6319V32.5967H145.2V34.4035H140.274V37.2956H145.025V39.0118H140.274V42.0628H145.2V43.6319H138.192Z" fill="white" fill-opacity="0.1"/>
<path d="M121.521 34.4035V43.6319H119.456V34.4035H116.119V32.5967H124.859V34.4035H121.521Z" fill="white" fill-opacity="0.1"/>
<path d="M75.9749 43.6319V39.7269L72.3677 32.5967H74.6877L75.9749 35.357L76.976 37.6293H77.0872L78.1042 35.357L79.4072 32.5967H81.6478L78.0406 39.7269V43.6319H75.9749Z" fill="white" fill-opacity="0.1"/>
<path d="M55.0058 43.6319C54.0837 43.6319 53.2948 43.4739 52.6391 43.1581C51.9936 42.8422 51.466 42.4244 51.0562 41.9048L52.2702 40.6515C52.6698 41.11 53.1001 41.4513 53.5612 41.6755C54.0325 41.8895 54.5345 41.9965 55.0672 41.9965C55.682 41.9965 56.1533 41.8589 56.4811 41.5838C56.809 41.3087 56.9729 40.9113 56.9729 40.3916C56.9729 39.9637 56.8499 39.6427 56.6041 39.4287C56.3582 39.2045 55.9432 39.0466 55.3592 38.9549L54.222 38.7715C53.2282 38.5983 52.5212 38.2416 52.1012 37.7016C51.6811 37.1514 51.4711 36.5043 51.4711 35.7605C51.4711 34.7416 51.8041 33.9621 52.47 33.422C53.136 32.8718 54.0581 32.5967 55.2363 32.5967C56.0764 32.5967 56.7987 32.7291 57.4032 32.9941C58.0179 33.259 58.5097 33.6207 58.8785 34.0792L57.6952 35.3326C57.4083 34.9963 57.0651 34.7314 56.6655 34.5378C56.266 34.334 55.7947 34.2321 55.2517 34.2321C54.0837 34.2321 53.4997 34.711 53.4997 35.6688C53.4997 36.0764 53.6226 36.3872 53.8685 36.6011C54.1144 36.8151 54.5345 36.9731 55.1287 37.0749L56.2506 37.2736C57.1829 37.4469 57.8745 37.7882 58.3253 38.2977C58.7761 38.8072 59.0015 39.4593 59.0015 40.2541C59.0015 40.7533 58.9144 41.2119 58.7402 41.6296C58.5661 42.0372 58.3099 42.3938 57.9718 42.6995C57.6337 42.995 57.2137 43.2243 56.7116 43.3873C56.2199 43.5504 55.6512 43.6319 55.0058 43.6319Z" fill="white" fill-opacity="0.1"/>
<path d="M98.8522 43.6319C97.9301 43.6319 97.1412 43.4739 96.4855 43.1581C95.84 42.8422 95.3124 42.4244 94.9026 41.9048L96.1167 40.6515C96.5162 41.11 96.9466 41.4513 97.4076 41.6755C97.8789 41.8895 98.3809 41.9965 98.9137 41.9965C99.5284 41.9965 99.9997 41.8589 100.328 41.5838C100.655 41.3087 100.819 40.9113 100.819 40.3916C100.819 39.9637 100.696 39.6427 100.45 39.4287C100.205 39.2045 99.7897 39.0466 99.2057 38.9549L98.0684 38.7715C97.0746 38.5983 96.3677 38.2416 95.9476 37.7016C95.5276 37.1514 95.3175 36.5043 95.3175 35.7605C95.3175 34.7416 95.6505 33.9621 96.3165 33.422C96.9824 32.8718 97.9045 32.5967 99.0827 32.5967C99.9229 32.5967 100.645 32.7291 101.25 32.9941C101.864 33.259 102.356 33.6207 102.725 34.0792L101.542 35.3326C101.255 34.9963 100.912 34.7314 100.512 34.5378C100.112 34.334 99.6411 34.2321 99.0981 34.2321C97.9301 34.2321 97.3461 34.711 97.3461 35.6688C97.3461 36.0764 97.4691 36.3872 97.715 36.6011C97.9608 36.8151 98.3809 36.9731 98.9751 37.0749L100.097 37.2736C101.029 37.4469 101.721 37.7882 102.172 38.2977C102.623 38.8072 102.848 39.4593 102.848 40.2541C102.848 40.7533 102.761 41.2119 102.587 41.6296C102.412 42.0372 102.156 42.3938 101.818 42.6995C101.48 42.995 101.06 43.2243 100.558 43.3873C100.066 43.5504 99.4977 43.6319 98.8522 43.6319Z" fill="white" fill-opacity="0.1"/>
<path d="M183.75 43.6319C182.828 43.6319 182.039 43.4739 181.383 43.1581C180.738 42.8422 180.21 42.4244 179.8 41.9048L181.014 40.6515C181.414 41.11 181.844 41.4513 182.305 41.6755C182.776 41.8895 183.278 41.9965 183.811 41.9965C184.426 41.9965 184.897 41.8589 185.225 41.5838C185.553 41.3087 185.717 40.9113 185.717 40.3916C185.717 39.9637 185.594 39.6427 185.348 39.4287C185.102 39.2045 184.687 39.0466 184.103 38.9549L182.966 38.7715C181.972 38.5983 181.265 38.2416 180.845 37.7016C180.425 37.1514 180.215 36.5043 180.215 35.7605C180.215 34.7416 180.548 33.9621 181.214 33.422C181.88 32.8718 182.802 32.5967 183.98 32.5967C184.82 32.5967 185.543 32.7291 186.147 32.9941C186.762 33.259 187.254 33.6207 187.622 34.0792L186.439 35.3326C186.152 34.9963 185.809 34.7314 185.409 34.5378C185.01 34.334 184.539 34.2321 183.996 34.2321C182.828 34.2321 182.244 34.711 182.244 35.6688C182.244 36.0764 182.367 36.3872 182.612 36.6011C182.858 36.8151 183.278 36.9731 183.873 37.0749L184.994 37.2736C185.927 37.4469 186.618 37.7882 187.069 38.2977C187.52 38.8072 187.745 39.4593 187.745 40.2541C187.745 40.7533 187.658 41.2119 187.484 41.6296C187.31 42.0372 187.054 42.3938 186.716 42.6995C186.378 42.995 185.958 43.2243 185.456 43.3873C184.964 43.5504 184.395 43.6319 183.75 43.6319Z" fill="white" fill-opacity="0.1"/>
</svg>
