<svg width="40" height="40" viewBox="0 0 40 40" fill="none" xmlns="http://www.w3.org/2000/svg">
<circle cx="20" cy="20" r="20" fill="white" fill-opacity="0.2"/>
<g clip-path="url(#clip0_105_263)">
<path d="M23.9302 11.5625H16.0552C13.5699 11.5625 11.5552 13.5772 11.5552 16.0625V23.9375C11.5552 26.4228 13.5699 28.4375 16.0552 28.4375H23.9302C26.4155 28.4375 28.4302 26.4228 28.4302 23.9375V16.0625C28.4302 13.5772 26.4155 11.5625 23.9302 11.5625Z" stroke="white" stroke-width="1.125" stroke-linecap="round" stroke-linejoin="round"/>
<path d="M19.9927 23.75C22.0637 23.75 23.7427 22.0711 23.7427 20C23.7427 17.9289 22.0637 16.25 19.9927 16.25C17.9216 16.25 16.2427 17.9289 16.2427 20C16.2427 22.0711 17.9216 23.75 19.9927 23.75Z" stroke="white" stroke-width="1.125" stroke-linecap="round" stroke-linejoin="round"/>
<path d="M25.5049 14.8623C25.5049 14.9618 25.4654 15.0571 25.395 15.1275C25.3247 15.1978 25.2293 15.2373 25.1299 15.2373C25.0304 15.2373 24.935 15.1978 24.8647 15.1275C24.7944 15.0571 24.7549 14.9618 24.7549 14.8623" stroke="white" stroke-width="1.125" stroke-linecap="round" stroke-linejoin="round"/>
<path d="M24.7549 14.8623C24.7549 14.7628 24.7944 14.6675 24.8647 14.5971C24.935 14.5268 25.0304 14.4873 25.1299 14.4873C25.2293 14.4873 25.3247 14.5268 25.395 14.5971C25.4654 14.6675 25.5049 14.7628 25.5049 14.8623" stroke="white" stroke-width="1.125" stroke-linecap="round" stroke-linejoin="round"/>
</g>
<defs>
<clipPath id="clip0_105_263">
<rect width="18" height="18" fill="white" transform="translate(11 11)"/>
</clipPath>
</defs>
</svg>
