<svg width="70" height="70" viewBox="0 0 70 70" fill="none" xmlns="http://www.w3.org/2000/svg">
<path d="M42.292 15.1404L48.1253 23.8904" stroke="white" stroke-width="2.91667" stroke-linecap="round" stroke-linejoin="round"/>
<path d="M21.875 23.8904L27.7083 15.1404" stroke="white" stroke-width="2.91667" stroke-linecap="round" stroke-linejoin="round"/>
<path d="M35.0003 50.1404C40.6382 50.1404 45.2087 45.5699 45.2087 39.932C45.2087 34.2941 40.6382 29.7237 35.0003 29.7237C29.3624 29.7237 24.792 34.2941 24.792 39.932C24.792 45.5699 29.3624 50.1404 35.0003 50.1404Z" stroke="white" stroke-width="2.91667" stroke-linecap="round" stroke-linejoin="round"/>
<path d="M49.583 23.8904H20.4163C19.6109 23.8904 18.958 24.5433 18.958 25.3487V54.5154C18.958 55.3208 19.6109 55.9737 20.4163 55.9737H49.583C50.3884 55.9737 51.0413 55.3208 51.0413 54.5154V25.3487C51.0413 24.5433 50.3884 23.8904 49.583 23.8904Z" stroke="white" stroke-width="2.91667" stroke-linecap="round" stroke-linejoin="round"/>
<path d="M33.542 35.557V41.3903H37.917" stroke="white" stroke-width="2.91667" stroke-linecap="round" stroke-linejoin="round"/>
<path d="M27.708 15.1404L33.6959 3.16452C33.8172 2.92261 34.0033 2.7192 34.2336 2.57705C34.4638 2.4349 34.7291 2.35962 34.9997 2.35962C35.2703 2.35962 35.5355 2.4349 35.7658 2.57705C35.996 2.7192 36.1822 2.92261 36.3034 3.16452L42.2913 15.1404H27.708Z" stroke="white" stroke-width="2.91667" stroke-linecap="round" stroke-linejoin="round"/>
<path d="M48.125 55.9737V66.182C48.125 66.5688 47.9714 66.9397 47.6979 67.2132C47.4244 67.4867 47.0534 67.6404 46.6667 67.6404H23.3333C22.9466 67.6404 22.5756 67.4867 22.3021 67.2132C22.0286 66.9397 21.875 66.5688 21.875 66.182V55.9737" stroke="white" stroke-width="2.91667" stroke-linecap="round" stroke-linejoin="round"/>
</svg>
