<svg width="50" height="50" viewBox="0 0 50 50" fill="none" xmlns="http://www.w3.org/2000/svg">
<g clip-path="url(#clip0_105_168)">
<path d="M10.9395 10.1562C10.7849 10.1562 10.6339 10.2021 10.5054 10.2879C10.3769 10.3738 10.2768 10.4958 10.2177 10.6385C10.1585 10.7813 10.1431 10.9384 10.1732 11.0899C10.2034 11.2415 10.2778 11.3807 10.387 11.4899C10.4963 11.5992 10.6355 11.6736 10.787 11.7037C10.9386 11.7339 11.0957 11.7184 11.2384 11.6593C11.3812 11.6001 11.5032 11.5 11.589 11.3715C11.6749 11.2431 11.7207 11.092 11.7207 10.9375C11.7207 10.7303 11.6384 10.5316 11.4919 10.3851C11.3454 10.2386 11.1467 10.1562 10.9395 10.1562V10.1562Z" stroke="#FF6C44" stroke-width="3.125" stroke-linecap="round" stroke-linejoin="round"/>
<path d="M10.9395 28.9062C10.7849 28.9062 10.6339 28.9521 10.5054 29.0379C10.3769 29.1238 10.2768 29.2458 10.2177 29.3885C10.1585 29.5313 10.1431 29.6884 10.1732 29.8399C10.2034 29.9915 10.2778 30.1307 10.387 30.2399C10.4963 30.3492 10.6355 30.4236 10.787 30.4537C10.9386 30.4839 11.0957 30.4684 11.2384 30.4093C11.3812 30.3501 11.5032 30.25 11.589 30.1215C11.6749 29.9931 11.7207 29.842 11.7207 29.6875C11.7207 29.4803 11.6384 29.2816 11.4919 29.1351C11.3454 28.9886 11.1467 28.9062 10.9395 28.9062V28.9062Z" stroke="#FF6C44" stroke-width="3.125" stroke-linecap="round" stroke-linejoin="round"/>
<path d="M20.3145 20.3125H10.9395C8.45305 20.3125 6.06848 19.3248 4.31033 17.5666C2.55217 15.8085 1.56445 13.4239 1.56445 10.9375C1.56445 8.4511 2.55217 6.06653 4.31033 4.30838C6.06848 2.55022 8.45305 1.5625 10.9395 1.5625H35.9395C37.8275 1.56142 39.6718 2.1304 41.231 3.19498C42.7903 4.25955 43.9918 5.7701 44.6782 7.52889C45.3647 9.28768 45.5041 11.2127 45.0782 13.0521C44.6524 14.8914 43.6811 16.5594 42.2915 17.8375" stroke="#FF6C44" stroke-width="3.125" stroke-linecap="round" stroke-linejoin="round"/>
<path d="M15.6249 39.0625H10.9395C8.45305 39.0625 6.06848 38.0748 4.31033 36.3166C2.55217 34.5585 1.56445 32.1739 1.56445 29.6875C1.56445 27.2011 2.55217 24.8165 4.31033 23.0584C6.06848 21.3002 8.45305 20.3125 10.9395 20.3125H20.3145" stroke="#FF6C44" stroke-width="3.125" stroke-linecap="round" stroke-linejoin="round"/>
<path d="M21.877 10.9375H35.9395" stroke="#FF6C44" stroke-width="3.125" stroke-linecap="round" stroke-linejoin="round"/>
<path d="M32.8145 43.75C38.8551 43.75 43.752 38.8531 43.752 32.8125C43.752 26.7719 38.8551 21.875 32.8145 21.875C26.7738 21.875 21.877 26.7719 21.877 32.8125C21.877 38.8531 26.7738 43.75 32.8145 43.75Z" stroke="#FCFCF7" stroke-width="3.125" stroke-linecap="round" stroke-linejoin="round"/>
<path d="M48.4395 48.4376L40.5479 40.5459" stroke="#FCFCF7" stroke-width="3.125" stroke-linecap="round" stroke-linejoin="round"/>
</g>
<defs>
<clipPath id="clip0_105_168">
<rect width="50" height="50" fill="white"/>
</clipPath>
</defs>
</svg>
