<svg width="50" height="50" viewBox="0 0 50 50" fill="none" xmlns="http://www.w3.org/2000/svg">
<path d="M17.2102 34.3541C14.6763 33.3731 12.6023 31.4775 11.398 29.0417C10.1937 26.6059 9.94656 23.8071 10.7055 21.1979C11.4644 18.5888 13.1742 16.3592 15.4971 14.9494C17.82 13.5395 20.5871 13.0521 23.2519 13.5833" stroke="#FF6C44" stroke-width="3.125" stroke-linecap="round" stroke-linejoin="round"/>
<path d="M17.1291 43.3478C12.1348 42.3054 7.74647 39.3506 4.90227 35.115C2.05807 30.8794 0.983733 25.6992 1.90894 20.6818C2.83415 15.6645 5.68548 11.2082 9.85334 8.26561C14.0212 5.32306 19.1748 4.12777 24.2125 4.93529" stroke="#FF6C44" stroke-width="3.125" stroke-linecap="round" stroke-linejoin="round"/>
<path d="M20.3125 24.7062L28.9937 16.0249" stroke="#FF6C44" stroke-width="3.125" stroke-linecap="round" stroke-linejoin="round"/>
<path d="M28.9937 16.025L30.177 8.2125L36.9437 1.5625L37.9895 7.02917L43.4562 8.075L36.8062 14.8417L28.9937 16.025Z" stroke="#FF6C44" stroke-width="3.125" stroke-linecap="round" stroke-linejoin="round"/>
<path d="M35.9375 48.4375C42.8411 48.4375 48.4375 42.8411 48.4375 35.9375C48.4375 29.0339 42.8411 23.4375 35.9375 23.4375C29.0339 23.4375 23.4375 29.0339 23.4375 35.9375C23.4375 42.8411 29.0339 48.4375 35.9375 48.4375Z" stroke="#FCFCF7" stroke-width="3.125" stroke-linecap="round" stroke-linejoin="round"/>
<path d="M41.5082 32.3018L35.4561 40.3726C35.3215 40.5516 35.1501 40.6996 34.9534 40.8066C34.7567 40.9136 34.5393 40.9772 34.316 40.993C34.0926 41.0088 33.8684 40.9765 33.6586 40.8982C33.4488 40.8199 33.2583 40.6975 33.0999 40.5393L29.9749 37.4143" stroke="#FCFCF7" stroke-width="3.125" stroke-linecap="round" stroke-linejoin="round"/>
</svg>
