<svg width="40" height="40" viewBox="0 0 40 40" fill="none" xmlns="http://www.w3.org/2000/svg">
<circle cx="20" cy="20" r="20" fill="white" fill-opacity="0.2"/>
<path d="M28.3851 16.0324L26.8101 15.3574L27.6351 13.5574L25.7151 14.1949C25.1035 13.6249 24.301 13.3039 23.4651 13.2949C22.5706 13.2969 21.7133 13.6531 21.0808 14.2856C20.4483 14.9181 20.092 15.7754 20.0901 16.6699V17.4199C17.4351 17.9674 15.1176 16.5199 12.9651 14.0449C12.5901 16.0449 12.9651 17.5449 14.0901 18.5449L11.6226 18.1699C11.7179 18.9643 12.0893 19.7 12.6719 20.2483C13.2546 20.7967 14.0114 21.1229 14.8101 21.1699L12.7476 21.9199C13.4976 23.4199 14.8626 23.6524 16.6851 23.7949C15.1954 24.8109 13.4252 25.3354 11.6226 25.2949C21.1926 29.5474 26.8101 23.2999 26.8101 17.7949V17.1724L28.3851 16.0324Z" stroke="white" stroke-width="1.125" stroke-linecap="round" stroke-linejoin="round"/>
</svg>
